<svg id="Layer_1" data-name="Layer 1" xmlns="http://www.w3.org/2000/svg" viewBox="0 0 554.73 555.39"><defs><style>.cls-1{fill:none;stroke:#000;stroke-linecap:round;stroke-linejoin:round;stroke-width:3px;}</style></defs><title>NEW_LOGO-BLACK</title><polygon points="162.08 99.08 122.51 424.9 277.1 277.87 162.08 99.08"/><polygon points="277.1 201.36 392.12 98.08 432.08 423.83 277.1 201.36"/><g id="CIRCLE"><path class="cls-1" d="M142.17,354.77c0-117.41,95.19-212.6,212.6-212.6s212.6,95.19,212.6,212.6-95.18,212.6-212.6,212.6-212.6-95.18-212.6-212.6Z" transform="translate(-77.67 -76.9)"/></g><g id="LINE"><line class="cls-1" x1="293.57" y1="214.64" x2="163.05" y2="99.87"/></g><line class="cls-1" x1="266.18" y1="268.51" x2="431.36" y2="423.16"/><path d="M252.55,97l23.35,29.31.24-37.45,12.46-4.3,15.88,46L295,133.85l-4.34-12.59-6.55-22.05-.59,38.59L277,140.05l-24.22-30,8.43,21.37L265.52,144,256,147.27l-15.88-46Z" transform="translate(-77.67 -76.9)"/><path d="M335.57,115.16l8.13-37.38,11.13-.88-13.07,49.89-10.44.82L310.65,80.39l11.11-.88Z" transform="translate(-77.67 -76.9)"/><path d="M400.69,110.37,381.57,108l-2.47,19.75-10-1.25,6.06-48.32,31.46,3.94-1,8.07-21.51-2.7-1.56,12.48,19.12,2.4Z" transform="translate(-77.67 -76.9)"/><path d="M438.85,108.46l14.06-12.94,10.92,3.73-21.21,18.27,5.84,27.94-11-3.77-3.36-19.17-14.37,13.12-11.05-3.77,21.7-18.54L424.71,85.9l10.92,3.72Z" transform="translate(-77.67 -76.9)"/><path d="M503.16,144.91l4.13,3.08c2,1.47,3.79,2.07,5.47,1.79a6.69,6.69,0,0,0,4.34-2.85,7.64,7.64,0,0,0,1.17-2.24,5.06,5.06,0,0,0,.2-2.31,5.63,5.63,0,0,0-.88-2.26,8.84,8.84,0,0,0-4.3-3.32,6.56,6.56,0,0,0-2.31-.37,5.11,5.11,0,0,0-2.16.54A5,5,0,0,0,507,138.5l-7.75-5.79a11.81,11.81,0,0,1,4.28-3.63,12.67,12.67,0,0,1,5.23-1.31,16,16,0,0,1,5.66.89,19.82,19.82,0,0,1,5.56,3,23.92,23.92,0,0,1,4.84,4.72,14.7,14.7,0,0,1,2.59,5.23,12.06,12.06,0,0,1,.1,5.51,14,14,0,0,1-2.63,5.53,10,10,0,0,1-2.25,2.2,10.56,10.56,0,0,1-2.88,1.46,13.28,13.28,0,0,1-7,.3,11.38,11.38,0,0,1-.27,14,13.57,13.57,0,0,1-4.7,4.08,13,13,0,0,1-5.6,1.44,16.41,16.41,0,0,1-6-1.05,23.36,23.36,0,0,1-6.05-3.33,22.64,22.64,0,0,1-4.38-4.31,15.77,15.77,0,0,1-2.7-5.24,13.2,13.2,0,0,1-.39-5.74,12.84,12.84,0,0,1,2.59-5.85l7.74,5.79a5.93,5.93,0,0,0-1.07,2.33,5.83,5.83,0,0,0,0,2.46,7.32,7.32,0,0,0,1,2.38,8.53,8.53,0,0,0,2,2.08,9.5,9.5,0,0,0,2.74,1.46,6.42,6.42,0,0,0,2.68.31,6,6,0,0,0,2.42-.82,7.07,7.07,0,0,0,2-1.88,9.17,9.17,0,0,0,1.55-3,5.52,5.52,0,0,0,.07-2.76,6.48,6.48,0,0,0-1.25-2.54,12.2,12.2,0,0,0-2.41-2.33L498.64,151Z" transform="translate(-77.67 -76.9)"/><path d="M514.38,190.57l36.56-32.17,9.9,11.25a23.54,23.54,0,0,1,4.68,7.88,20.31,20.31,0,0,1,1.08,8.41,21.73,21.73,0,0,1-2.5,8.28,26.17,26.17,0,0,1-6.05,7.5l-1.65,1.46a26.5,26.5,0,0,1-8.19,5,21.28,21.28,0,0,1-8.53,1.4,20.18,20.18,0,0,1-8.22-2.19,23.9,23.9,0,0,1-7.25-5.69Zm37.08-19.27-24.4,21.48,3.2,3.64q3.93,4.47,8.94,4.21t10.48-5.08l1.71-1.5q5.57-4.91,6.41-9.75T554.73,175Z" transform="translate(-77.67 -76.9)"/><path d="M558.51,250.11l44.91-18.81,5.79,13.82a23.4,23.4,0,0,1,1.93,9,20.38,20.38,0,0,1-1.67,8.32,21.8,21.8,0,0,1-5,7,26.57,26.57,0,0,1-8.12,5.19l-2,.85a26.77,26.77,0,0,1-9.37,2.17,21.32,21.32,0,0,1-8.53-1.4,20.43,20.43,0,0,1-7.1-4.7,23.66,23.66,0,0,1-5-7.71Zm41.29-6.42-30,12.56,1.87,4.48q2.31,5.49,7.13,6.84t11.55-1.47l2.1-.88q6.84-2.87,9.19-7.19t.06-9.77Z" transform="translate(-77.67 -76.9)"/><path d="M602.45,322l-3.6-18.93L586,305.51l4.23,22.22-7.92,1.5-6.1-32.07,47.84-9.1,6.09,32-8,1.52L618,299.43l-11.4,2.17,3.6,18.93Z" transform="translate(-77.67 -76.9)"/><path d="M595.68,366.45a7,7,0,0,0,2.3-.33,4.44,4.44,0,0,0,1.91-1.39,12.65,12.65,0,0,0,1.75-2.88,44.3,44.3,0,0,0,1.85-4.77,59.78,59.78,0,0,1,2.51-6.27,23.29,23.29,0,0,1,3.25-5.13,14.17,14.17,0,0,1,4.25-3.44,11.36,11.36,0,0,1,5.58-1.2,11.77,11.77,0,0,1,5.54,1.41,12.64,12.64,0,0,1,4.24,3.78,18.71,18.71,0,0,1,2.67,5.73,25.37,25.37,0,0,1,.87,7.26,23.12,23.12,0,0,1-1.24,7.34,17.14,17.14,0,0,1-3.22,5.6,13.74,13.74,0,0,1-4.83,3.53,14.28,14.28,0,0,1-6.05,1.18l.16-10a8,8,0,0,0,2.85-.44,5.64,5.64,0,0,0,2.26-1.45,6.72,6.72,0,0,0,1.5-2.48,11.2,11.2,0,0,0,.58-3.54,12.2,12.2,0,0,0-.38-3.43,7.05,7.05,0,0,0-1.17-2.43,5,5,0,0,0-4-2,4.75,4.75,0,0,0-4.07,2.39,27.61,27.61,0,0,0-3.14,7.16,47.07,47.07,0,0,1-2.86,7,20.91,20.91,0,0,1-3.49,5,13.17,13.17,0,0,1-4.33,3,13.5,13.5,0,0,1-5.4.95,12.61,12.61,0,0,1-5.7-1.35,11.83,11.83,0,0,1-4.18-3.63,17,17,0,0,1-2.55-5.61,26.8,26.8,0,0,1-.8-7.29,28,28,0,0,1,.5-4.81,23.3,23.3,0,0,1,1.36-4.58,19.65,19.65,0,0,1,2.24-4,14.67,14.67,0,0,1,3.13-3.21,13.86,13.86,0,0,1,4.06-2.11,15.17,15.17,0,0,1,5-.71l-.17,10.07a9,9,0,0,0-3.75.64,6.34,6.34,0,0,0-2.53,1.92,7.9,7.9,0,0,0-1.43,3,16.37,16.37,0,0,0-.5,3.94,12.3,12.3,0,0,0,.36,3.38,6.85,6.85,0,0,0,1.12,2.4A4.5,4.5,0,0,0,593.5,366,5.16,5.16,0,0,0,595.68,366.45Z" transform="translate(-77.67 -76.9)"/><path d="M578.67,399.83l1.75-9.88,48,8.5-1.75,9.88Z" transform="translate(-77.67 -76.9)"/><path d="M568.42,453.41a16.3,16.3,0,0,1-1.28-3,18,18,0,0,1-.78-4.31,27.66,27.66,0,0,1,.24-5.62,32.48,32.48,0,0,1,1.79-6.92A22.9,22.9,0,0,1,572.8,426a18,18,0,0,1,6.57-4.7,20.65,20.65,0,0,1,8.42-1.51,30.6,30.6,0,0,1,10,2l2.7,1a31.77,31.77,0,0,1,8.94,4.81,20.9,20.9,0,0,1,5.56,6.4,17.44,17.44,0,0,1,2.1,7.62,21.75,21.75,0,0,1-1.4,8.42,25,25,0,0,1-3.93,7.31,16.1,16.1,0,0,1-5.1,4.3,15.17,15.17,0,0,1-6.06,1.66,23,23,0,0,1-6.71-.63l3.35-9.18a14.31,14.31,0,0,0,3.44.26,7.24,7.24,0,0,0,5.45-2.77,11.88,11.88,0,0,0,1.85-3.43,8.88,8.88,0,0,0-1-8.69Q604.2,435,597,432.4l-2.77-1q-7.18-2.62-11.87-1.23t-6.59,6.67a18.2,18.2,0,0,0-.86,3,12.46,12.46,0,0,0-.23,2.35,7.57,7.57,0,0,0,.18,1.76,6.11,6.11,0,0,0,.41,1.25l7.89,2.88,3.12-8.58,7,2.53-6.56,18Z" transform="translate(-77.67 -76.9)"/><path d="M534.7,496.67l5.52-8.38,37.51,1.31L551,472l5.52-8.38,40.68,26.78-5.52,8.38-37.58-1.32,26.82,17.66-5.5,8.35Z" transform="translate(-77.67 -76.9)"/><path d="M492.6,549.42l14-10.7-3.45-10,8.47-6.49,15.22,49.69-7.38,5.65L475.35,550l8.47-6.49Zm16.76-2.6-9.67,7.4L515.64,565Z" transform="translate(-77.67 -76.9)"/><path d="M430.3,571.18l9.15-4.11,31,21.21-13.15-29.23,9.16-4.11,20,44.41-9.15,4.12-31-21.26,13.17,29.28-9.12,4.11Z" transform="translate(-77.67 -76.9)"/><path d="M416.5,575.35l9.37,47.79L411.17,626a23.24,23.24,0,0,1-9.17.08,20.26,20.26,0,0,1-7.81-3.31,21.71,21.71,0,0,1-5.89-6.33,26.41,26.41,0,0,1-3.44-9l-.42-2.17a26.35,26.35,0,0,1-.23-9.62,21.36,21.36,0,0,1,3.08-8.07,20.45,20.45,0,0,1,6-6,23.71,23.71,0,0,1,8.57-3.38Zm-2,41.75-6.25-31.91-4.76.94q-5.85,1.14-8.14,5.6t-.89,11.61l.43,2.23q1.42,7.29,5.19,10.45t9.56,2Z" transform="translate(-77.67 -76.9)"/><path d="M323.42,593.11,307.74,628l-11.08-1.45,23.12-46.09,10.38,1.35,10.45,50.48-11.05-1.44Z" transform="translate(-77.67 -76.9)"/><path d="M282.49,571.44l9.59,3-14.37,46.52-9.59-3Z" transform="translate(-77.67 -76.9)"/><path d="M239.33,566.62a6.87,6.87,0,0,0-.7,2.22,4.46,4.46,0,0,0,.43,2.32A12.75,12.75,0,0,0,240.9,574a46.12,46.12,0,0,0,3.49,3.74,56.28,56.28,0,0,1,4.56,5,23,23,0,0,1,3.22,5.15,13.8,13.8,0,0,1,1.26,5.33,11.44,11.44,0,0,1-1.33,5.54,11.77,11.77,0,0,1-3.68,4.38,12.49,12.49,0,0,1-5.24,2.19,18.45,18.45,0,0,1-6.32-.08,25.34,25.34,0,0,1-6.92-2.36,22.83,22.83,0,0,1-6.07-4.3,17,17,0,0,1-3.66-5.33,13.85,13.85,0,0,1-1.09-5.88,14.25,14.25,0,0,1,1.56-6l9,4.49a8.11,8.11,0,0,0-.84,2.76,5.9,5.9,0,0,0,.32,2.67,6.85,6.85,0,0,0,1.6,2.42,10.68,10.68,0,0,0,2.93,2,12,12,0,0,0,3.26,1.15,7,7,0,0,0,2.7,0,5,5,0,0,0,3.51-2.73,4.73,4.73,0,0,0-.39-4.7,27.68,27.68,0,0,0-5.09-5.93,48.57,48.57,0,0,1-5-5.59,21.12,21.12,0,0,1-3-5.32,13.13,13.13,0,0,1-.82-5.19,13.44,13.44,0,0,1,1.49-5.28,12.56,12.56,0,0,1,3.68-4.56,11.74,11.74,0,0,1,5.08-2.18,16.7,16.7,0,0,1,6.16.13,26.46,26.46,0,0,1,6.92,2.43,28.3,28.3,0,0,1,4.12,2.53,23.08,23.08,0,0,1,3.53,3.21,19.61,19.61,0,0,1,2.66,3.76,15.08,15.08,0,0,1,1.54,4.22,13.67,13.67,0,0,1,.14,4.57,15.2,15.2,0,0,1-1.53,4.83l-9-4.51a9,9,0,0,0,1-3.66,6.46,6.46,0,0,0-.63-3.11,8,8,0,0,0-2.09-2.59,16.22,16.22,0,0,0-3.33-2.16,12.22,12.22,0,0,0-3.21-1.14,6.92,6.92,0,0,0-2.64,0,4.54,4.54,0,0,0-2,1A5.42,5.42,0,0,0,239.33,566.62Z" transform="translate(-77.67 -76.9)"/><path d="M166.22,558.53l20.21-25a18.46,18.46,0,0,1,5.77-4.91,15.15,15.15,0,0,1,6.41-1.76,16.52,16.52,0,0,1,6.65,1.16,26.07,26.07,0,0,1,11.65,9.42,16.38,16.38,0,0,1,2.53,6.26,14.69,14.69,0,0,1-.39,6.63,18.51,18.51,0,0,1-3.6,6.66l-20.2,25-7.81-6.31,20.21-25c2-2.48,2.87-4.77,2.6-6.87a8.81,8.81,0,0,0-3.55-5.69,8.71,8.71,0,0,0-6.3-2.28q-3.14.28-6.15,4l-20.2,25Z" transform="translate(-77.67 -76.9)"/><path d="M162.56,496l10.94,13.78,9.94-3.62,6.63,8.36-49.41,16.09-5.78-7.29,26.8-44.56,6.64,8.36Zm2.89,16.72-7.57-9.54-10.47,16.13Z" transform="translate(-77.67 -76.9)"/><path d="M145.13,464.1l-9.53-19.05,7.21-3.61,14,28-43.55,21.79-4.49-9Z" transform="translate(-77.67 -76.9)"/><path d="M135.77,419.64l3.06,9.56L92.45,444l-3.06-9.55Z" transform="translate(-77.67 -76.9)"/><path d="M115,381.52a6.73,6.73,0,0,0-2.22.69,4.46,4.46,0,0,0-1.66,1.68,13,13,0,0,0-1.26,3.13,43.28,43.28,0,0,0-1.06,5,61.78,61.78,0,0,1-1.47,6.58A23.07,23.07,0,0,1,105,404.2a14.06,14.06,0,0,1-3.64,4.08A11.37,11.37,0,0,1,96,410.36a11.71,11.71,0,0,1-5.7-.5,12.43,12.43,0,0,1-4.79-3.05A18.14,18.14,0,0,1,82,401.59a25.47,25.47,0,0,1-2-7,22.91,22.91,0,0,1,0-7.45,17,17,0,0,1,2.27-6,13.91,13.91,0,0,1,4.2-4.27,14.29,14.29,0,0,1,5.79-2.13l1.45,9.93a7.82,7.82,0,0,0-2.74.89,5.59,5.59,0,0,0-2,1.8A7,7,0,0,0,87.88,390a10.71,10.71,0,0,0,0,3.58,12,12,0,0,0,.93,3.33,7,7,0,0,0,1.54,2.21,5.11,5.11,0,0,0,2,1.16,5.23,5.23,0,0,0,2.26.16,4.73,4.73,0,0,0,3.63-3,27.84,27.84,0,0,0,2-7.57,47.57,47.57,0,0,1,1.7-7.33,20.92,20.92,0,0,1,2.64-5.49,13.13,13.13,0,0,1,3.79-3.65,13.43,13.43,0,0,1,5.18-1.8,12.41,12.41,0,0,1,5.84.41,11.72,11.72,0,0,1,4.71,2.91,16.67,16.67,0,0,1,3.42,5.13,26.84,26.84,0,0,1,2,7.06,27.74,27.74,0,0,1,.29,4.83,23.73,23.73,0,0,1-.61,4.73,19.83,19.83,0,0,1-1.56,4.34,15,15,0,0,1-2.57,3.67,13.91,13.91,0,0,1-3.68,2.74,14.87,14.87,0,0,1-4.83,1.5l-1.46-10a8.88,8.88,0,0,0,3.6-1.24,6.41,6.41,0,0,0,2.19-2.3,8.15,8.15,0,0,0,.93-3.19,16.36,16.36,0,0,0-.14-4,12.44,12.44,0,0,0-.9-3.28,6.86,6.86,0,0,0-1.49-2.18,4.55,4.55,0,0,0-1.94-1.12A5.21,5.21,0,0,0,115,381.52Z" transform="translate(-77.67 -76.9)"/><path d="M117.52,327.52,115.71,345l9.63,4.35L124.24,360,77.67,337l1-9.25,50.31-13.12-1.1,10.62Zm-9.62,14,1.25-12.11L90.39,333.6Z" transform="translate(-77.67 -76.9)"/><path d="M102.45,259.64,98.23,274l38.92,11.47L134.31,295,95.4,283.57l-4.16,14.12-7.8-2.3,11.21-38.05Z" transform="translate(-77.67 -76.9)"/><path d="M151.45,250.72l-4.38,9-43.81-21.26,4.38-9Z" transform="translate(-77.67 -76.9)"/><path d="M163,190.74a30.71,30.71,0,0,1,7.23,7.09,21.6,21.6,0,0,1,3.61,7.83,18.32,18.32,0,0,1,0,8.07,22.12,22.12,0,0,1-9.84,13.6,18.64,18.64,0,0,1-7.68,2.56,22,22,0,0,1-8.61-.92,30.37,30.37,0,0,1-9-4.63l-1.73-1.25a30.79,30.79,0,0,1-7.21-7.09,22.08,22.08,0,0,1-3.63-7.89,18.45,18.45,0,0,1,0-8.1,22.1,22.1,0,0,1,9.84-13.61,18.48,18.48,0,0,1,7.7-2.52,22.13,22.13,0,0,1,8.63,1,30.83,30.83,0,0,1,9,4.63Zm-7.75,6.94q-6.21-4.49-11-4.6A9.69,9.69,0,0,0,135,205.77q1.62,4.54,7.82,9l1.79,1.29a28.22,28.22,0,0,0,5.88,3.37,14.88,14.88,0,0,0,5.2,1.2,8.92,8.92,0,0,0,4.39-.93,9.75,9.75,0,0,0,3.48-3.06,8.85,8.85,0,0,0,1.31-8.67q-1.67-4.55-7.87-9Z" transform="translate(-77.67 -76.9)"/><path d="M220.57,169,213,175.58,177.25,164.1l20.95,24.25-7.6,6.56-31.83-36.86,7.59-6.56L202.16,163l-21-24.3,7.57-6.54Z" transform="translate(-77.67 -76.9)"/></svg>